<svg id="Capa_1" data-name="Capa 1" xmlns="http://www.w3.org/2000/svg" viewBox="0 0 500 486"><path d="M457.33,370.1l33.15-156a77.06,77.06,0,0,0-25.29-74.63L333.27,26.57a76.85,76.85,0,0,0-72.14-15.34L94.59,60.74a77.08,77.08,0,0,0-53.47,57.9L8,274.6a77.08,77.08,0,0,0,25.19,74.55l131.9,113.28a76.78,76.78,0,0,0,72.36,15.38L404,428h0A77.09,77.09,0,0,0,457.33,370.1ZM343,168.53a42.05,42.05,0,0,1-46.56,20.25L275.27,228c1.37,1.07,2.71,2.18,4,3.37a64.1,64.1,0,0,1,3.59,91.32,65.34,65.34,0,0,1-6,5.59l13.65,19.32A36.21,36.21,0,0,1,330,359.61a35.16,35.16,0,0,1-6.33,49.73,36.19,36.19,0,0,1-50.29-6.4,35.16,35.16,0,0,1,.28-43.85L259.2,338.66A66.14,66.14,0,0,1,190.49,326,64.1,64.1,0,0,1,180.2,243.1l-51.28-37.48a41.83,41.83,0,0,1-27.09,9.67l-1.16,0c-22.54-.72-40.61-19.11-40.52-41.52a40.75,40.75,0,0,1,12.38-29.17,41.86,41.86,0,0,1,29.64-12c23.07.14,41.78,18.75,41.69,41.54a41,41,0,0,1-2.91,15L194.13,228a66.12,66.12,0,0,1,63.21-10l20.88-38.71a41.08,41.08,0,0,1-12.15-19.14,40.64,40.64,0,0,1,3.45-31.42c11.07-20,36.55-27.31,56.8-16.34a41.24,41.24,0,0,1,20.09,24.71A40.6,40.6,0,0,1,343,168.53Z"/></svg>