<svg id="Capa_1" data-name="Capa 1" xmlns="http://www.w3.org/2000/svg" viewBox="0 0 256 256"><path d="M236.58,193.38l17.23-81.1a40.09,40.09,0,0,0-13.14-38.81L172.06,14.74a40,40,0,0,0-37.51-8L48,32.52a40.08,40.08,0,0,0-27.8,30.1L2.91,143.72A40.1,40.1,0,0,0,16,182.49l68.59,58.9a39.93,39.93,0,0,0,37.63,8l86.62-25.92h0A40.11,40.11,0,0,0,236.58,193.38ZM177.11,88.56a21.8,21.8,0,0,1-19.8,11.14,22.26,22.26,0,0,1-4.42-.6l-11,20.36c.71.56,1.41,1.14,2.08,1.75a33.33,33.33,0,0,1,1.87,47.49,34,34,0,0,1-3.11,2.91l7.1,10a18.85,18.85,0,0,1,20.51,6.28,18.29,18.29,0,0,1-3.3,25.85,18.8,18.8,0,0,1-26.15-3.32,18.24,18.24,0,0,1-3.76-13.64,18,18,0,0,1,3.91-9.16L133.55,177a34.48,34.48,0,0,1-13.68,2.36,34.13,34.13,0,0,1-22.05-9A33.31,33.31,0,0,1,86.94,147a32.94,32.94,0,0,1,5.53-19.67L65.8,107.85a21.69,21.69,0,0,1-14.08,5h-.6A21.68,21.68,0,0,1,30,91.28a21.23,21.23,0,0,1,6.44-15.17A21.83,21.83,0,0,1,73.57,91.49a21.15,21.15,0,0,1-1.51,7.8l27.66,20.2a34.38,34.38,0,0,1,32.86-5.19l10.86-20.14a21.33,21.33,0,0,1-6.32-10,21.11,21.11,0,0,1,1.8-16.33,21.9,21.9,0,0,1,29.53-8.5A21.42,21.42,0,0,1,178.9,72.23,21.11,21.11,0,0,1,177.11,88.56Z"/></svg>