<svg id="Capa_1" data-name="Capa 1" xmlns="http://www.w3.org/2000/svg" viewBox="0 0 899 275"><path d="M350.38,84.73l1.4-5.74a174.58,174.58,0,0,0,28.85-4.69q-4.1,12.09-6,19.48l-6.32,26.16q20.73,0,31.2-10.38A33.59,33.59,0,0,0,410,84.87a19.65,19.65,0,0,0-7.56-16.07q-7.56-6.09-22.56-6.1a85.87,85.87,0,0,0-40.43,10.09q-19.22,10.09-29.94,26.34t-10.73,32.56A26.8,26.8,0,0,0,300,140a24.41,24.41,0,0,0,3.58,7q1.41,1.88,6.21,5.16,5.39,3.75,6.68,5.57A7.2,7.2,0,0,1,317.8,162a5.89,5.89,0,0,1-1.82,4.29,6,6,0,0,1-4.39,1.81q-6.69,0-13.54-9.73t-6.85-24q0-19.71,11.77-38.18t33.34-29.62a101.85,101.85,0,0,1,47.47-11.15q21.09,0,32.05,8.33t10.95,20.29a32.52,32.52,0,0,1-7.38,20.69Q412,114,397,119q10.31,1.64,16.29,5.56a27.28,27.28,0,0,1,9.2,9.9,28.49,28.49,0,0,1,3.22,13.7,42.8,42.8,0,0,1-7.44,24q-7.44,11.31-21.92,18.74a65.15,65.15,0,0,1-30.17,7.44q-4.57,0-19.57-.94-7.15-.34-15-.35a107.58,107.58,0,0,0-21.21,1.87l1.75-6.44q12.31-.7,17.52-5.9t9.79-22.94l17.34-68.11a30.56,30.56,0,0,0,1.06-6.61,4.16,4.16,0,0,0-1.47-3.13,5.25,5.25,0,0,0-3.69-1.36A10.11,10.11,0,0,0,350.38,84.73ZM366.48,127l-6,23.58q-4.57,18.3-8.77,28.16a33,33,0,0,1-6.41,10,78.15,78.15,0,0,0,18.16,2.58q20.5,0,31-12.67A43.24,43.24,0,0,0,405,150.32,22.48,22.48,0,0,0,401.06,137a20.52,20.52,0,0,0-10.3-7.8Q384.39,127,366.48,127Z"/><path d="M443.31,125.63l-5.16-4q11.7-12.89,21.36-18.34T476,97.86a8.81,8.81,0,0,1,5.73,1.64,5.45,5.45,0,0,1,2,4.45q0,3.4-7.6,28.83-12.37,41.61-12.38,50.16a4.49,4.49,0,0,0,.82,2.75,2.24,2.24,0,0,0,1.76,1.11q3.74,0,19.21-14.53l4.57,4.46Q474,191.84,466.63,196.06t-12.07,4.22a8.46,8.46,0,0,1-6.51-2.58,10.07,10.07,0,0,1-2.4-7.15q0-14.64,17.58-71.6a16.94,16.94,0,0,0,.82-4.8c0-1.56-.7-2.35-2.11-2.35a10.36,10.36,0,0,0-5.33,1.88Q453.63,115.56,443.31,125.63Zm46.05-77.58a8,8,0,0,1,6,2.41,8.44,8.44,0,0,1,2.34,6.15,13.09,13.09,0,0,1-3.57,9.08,10.68,10.68,0,0,1-8,3.93,7.76,7.76,0,0,1-5.86-2.46,9,9,0,0,1-2.34-6.45,12.74,12.74,0,0,1,3.4-9A10.63,10.63,0,0,1,489.36,48.05Z"/><path d="M498.85,127.51l-4.57-4.69q10.67-12.76,21.21-18.87t18.29-6.09a6.86,6.86,0,0,1,4.62,1.46,5.33,5.33,0,0,1,1.7,4.28,33.18,33.18,0,0,1-.76,7q-.76,3.59-4.74,16.94,17.92-17.94,24.49-22.15,11-7.15,20.15-7.15,6,0,10.08,5.63t4.1,17q0,28.37-17.68,53.9t-39.11,25.55a35.07,35.07,0,0,1-16.86-4.57l-10,38.67a23.66,23.66,0,0,0-.94,5.74c0,2.89,1.1,5,3.29,6.22q5,2.92,21.21,4.8L531.78,257q-18.87-1.53-29.65-1.52-11.13,0-28.82,1.52l1.52-5.86q8.91-.94,12.95-4.92t6.5-14.18l21.21-88.95q6-24.84,6-27.65c0-2-1-3-2.93-3Q513.38,112.39,498.85,127.51Zm23.74,55.31q9.25,9.26,19,9.26,14,0,24.63-21.92t10.59-42.77q0-6.67-3-10.14a10.06,10.06,0,0,0-8-3.45q-5.61,0-12.63,5.5-10.87,8.57-16.6,17-4.09,6.09-7.72,21.09Z"/><path d="M651.43,168.76l4,4.22a116,116,0,0,1-21.63,18.81q-12.48,8.49-20.56,8.49a7.52,7.52,0,0,1-6-2.75,11.32,11.32,0,0,1-2.34-7.56q0-9.37,7.26-38.91L624.8,99.62q6.91-27.9,11.59-37.39A54.71,54.71,0,0,1,685,32q5,0,7.9,2.42a7.39,7.39,0,0,1,2.87,5.84,7.83,7.83,0,0,1-2.81,6.2c-1.86,1.61-4.59,2.41-8.17,2.41a59.58,59.58,0,0,1-9.92-1.17,63.91,63.91,0,0,0-10.4-.93q-4.78,0-7.24,2-3.37,2.8-6.13,11.78T642.13,96l-11.69,49.11q-8.67,36.91-8.67,38.55,0,3.75,2.69,3.75c1.72,0,4.22-1,7.51-3A117.43,117.43,0,0,0,651.43,168.76Z"/><path d="M664,125.63l-5.16-4q11.72-12.89,21.37-18.34t16.44-5.45a8.84,8.84,0,0,1,5.74,1.64,5.48,5.48,0,0,1,2,4.45q0,3.4-7.6,28.83-12.39,41.61-12.39,50.16a4.49,4.49,0,0,0,.82,2.75,2.26,2.26,0,0,0,1.76,1.11q3.75,0,19.22-14.53l4.57,4.46q-16.07,15.11-23.44,19.33t-12.07,4.22a8.45,8.45,0,0,1-6.5-2.58,10,10,0,0,1-2.41-7.15q0-14.64,17.58-71.6a16.59,16.59,0,0,0,.82-4.8c0-1.56-.7-2.35-2.11-2.35a10.36,10.36,0,0,0-5.33,1.88Q674.29,115.56,664,125.63ZM710,48.05a8,8,0,0,1,6,2.41,8.45,8.45,0,0,1,2.35,6.15,13.1,13.1,0,0,1-3.58,9.08,10.66,10.66,0,0,1-8,3.93,7.78,7.78,0,0,1-5.86-2.46,9,9,0,0,1-2.34-6.45,12.74,12.74,0,0,1,3.4-9A10.63,10.63,0,0,1,710,48.05Z"/><path d="M719.52,127.51,715,122.82q10.66-12.76,21.21-18.87t18.28-6.09a6.91,6.91,0,0,1,4.63,1.46,5.37,5.37,0,0,1,1.7,4.28,33.86,33.86,0,0,1-.76,7q-.76,3.59-4.75,16.94,17.93-17.94,24.49-22.15,11-7.15,20.16-7.15,6,0,10.08,5.63t4.1,17q0,28.37-17.68,53.9t-39.12,25.55a35.07,35.07,0,0,1-16.86-4.57l-10,38.67a23.17,23.17,0,0,0-.94,5.74c0,2.89,1.09,5,3.28,6.22q5,2.92,21.21,4.8L752.45,257q-18.87-1.53-29.65-1.52-11.13,0-28.83,1.52l1.52-5.86q8.91-.94,13-4.92T715,232l21.21-88.95q6-24.84,6-27.65c0-2-1-3-2.92-3Q734.05,112.39,719.52,127.51Zm23.74,55.31q9.24,9.26,19,9.26,14,0,24.63-21.92t10.6-42.77q0-6.67-3-10.14a10,10,0,0,0-8-3.45q-5.62,0-12.63,5.5-10.87,8.57-16.61,17-4.1,6.09-7.72,21.09Z"/><path d="M856.16,80.4l18.6-7.14-8.42,32.8h24.27l-1.87,8.32H864.45l-10.22,39.28q-4.87,17.68-4.87,24.59c0,2.11.45,3.63,1.35,4.57a4.87,4.87,0,0,0,3.69,1.41q3.63,0,11.13-4.34a145.24,145.24,0,0,0,18.75-13l4.46,5.39Q863.08,191.61,854.4,196t-13.94,4.33a8.29,8.29,0,0,1-6.86-3.16q-2.52-3.17-2.52-10.32,0-8.43,4.45-25.78l11.93-46.64h-19l2.11-8.32h19Z"/><path d="M218.31,53.71A118.5,118.5,0,1,0,50.72,221.29,118.78,118.78,0,0,0,176.17,248.5a33.48,33.48,0,0,1-5.79-9.4,107.92,107.92,0,1,1,51.68-38.86,33.73,33.73,0,0,1,7.43,8.15A118.55,118.55,0,0,0,218.31,53.71Z"/><circle cx="201.4" cy="226.54" r="22.72"/><path d="M122,110.83a15.28,15.28,0,0,0,.91-4.82c0-3.41-3.07-5.12-9.18-5.12a19.42,19.42,0,0,0-8.28,1.51,7.83,7.83,0,0,0-4.22,5.27,436.42,436.42,0,0,0-9.93,44.62,431.64,431.64,0,0,0-5.27,44.17q-.3,4.66,1.73,7.07t7.45,2.41a16.8,16.8,0,0,0,8.88-2.11,7.26,7.26,0,0,0,3.62-6.32q4.51.45,12,.45,20.16,0,34.46-4.74T176,179.75a30.75,30.75,0,0,0,7.45-20.61,20.24,20.24,0,0,0-4.82-13.32q-4.81-5.79-14.15-8.36,17.31-4.05,26.34-13.31a30.5,30.5,0,0,0,9-22.05q0-15-13.39-24.23T145.8,68.69A148.92,148.92,0,0,0,111,72.75,111.89,111.89,0,0,0,81.39,84q-6,3.46-7.6,6.17a12.63,12.63,0,0,0-1.58,6.47,7.55,7.55,0,0,0,1.43,4.74,4.86,4.86,0,0,0,4.14,1.88q3.3,0,8.12-2.86A102.77,102.77,0,0,1,111.49,90a116.85,116.85,0,0,1,31.15-4.14q17.76,0,26.34,5t8.58,13.77a17,17,0,0,1-5,12.11,32.52,32.52,0,0,1-13.62,8A67.43,67.43,0,0,1,139.63,128c-3.21.1-5.42,1.06-6.62,2.86a12.6,12.6,0,0,0-1.81,7.08,6.44,6.44,0,0,0,1.21,4.36c.8.9,2.2,1.41,4.21,1.51q13.24.45,18.89,5a13.76,13.76,0,0,1,5.64,11.14q0,9.48-9.85,15.57t-30.93,6.1q-4.52,0-11.74-.6a379.82,379.82,0,0,1,5.57-38.3Q118.1,122.56,122,110.83Z"/></svg>