<svg id="Capa_1" data-name="Capa 1" xmlns="http://www.w3.org/2000/svg" viewBox="0 0 32 32"><path d="M29.2,23.82l2.1-9.89a4.91,4.91,0,0,0-1.6-4.74L21.33,2a4.85,4.85,0,0,0-4.58-1L6.19,4.2A4.9,4.9,0,0,0,2.8,7.87L.7,17.76a4.9,4.9,0,0,0,1.6,4.73l8.36,7.18a4.88,4.88,0,0,0,4.59,1l10.56-3.16h0A4.92,4.92,0,0,0,29.2,23.82ZM21.94,11a2.64,2.64,0,0,1-2.41,1.36,2.5,2.5,0,0,1-.54-.07L17.65,14.8l.26.22a4.07,4.07,0,0,1,.22,5.79,3.15,3.15,0,0,1-.38.35l.87,1.23a2.28,2.28,0,0,1,2.5.76,2.24,2.24,0,0,1-1.86,3.62,2.29,2.29,0,0,1-1.73-.87,2.22,2.22,0,0,1-.46-1.66,2.17,2.17,0,0,1,.48-1.12l-.92-1.3a4.18,4.18,0,0,1-4.35-.8A4,4,0,0,1,11,18.16a4,4,0,0,1,.67-2.4L8.37,13.39A2.66,2.66,0,0,1,6.65,14H6.58A2.64,2.64,0,0,1,4,11.37a2.58,2.58,0,0,1,.78-1.85,2.62,2.62,0,0,1,1.88-.76,2.65,2.65,0,0,1,2.65,2.63,2.56,2.56,0,0,1-.19.95l3.38,2.47a4.19,4.19,0,0,1,4-.64l1.33-2.45a2.66,2.66,0,0,1-.77-1.22,2.56,2.56,0,0,1,.22-2,2.66,2.66,0,0,1,3.6-1A2.6,2.6,0,0,1,22.16,9,2.56,2.56,0,0,1,21.94,11Z"/></svg>