<svg id="Capa_1" data-name="Capa 1" xmlns="http://www.w3.org/2000/svg" viewBox="0 0 512 512"><path d="M472.71,386l34.41-161.88a80,80,0,0,0-26.25-77.46L344,29.44a79.78,79.78,0,0,0-74.87-15.92L96.23,64.91A80,80,0,0,0,40.74,125L6.34,286.87a80,80,0,0,0,26.14,77.38l136.9,117.57a79.75,79.75,0,0,0,75.11,16L417.36,446h0A80,80,0,0,0,472.71,386ZM354,176.78A43.53,43.53,0,0,1,314.5,199a44.25,44.25,0,0,1-8.81-1.21l-21.93,40.65c1.42,1.11,2.81,2.26,4.16,3.5a66.55,66.55,0,0,1,3.73,94.78,70.3,70.3,0,0,1-6.2,5.8l14.17,20.05a37.58,37.58,0,0,1,40.92,12.53,36.49,36.49,0,0,1-6.57,51.6,37.52,37.52,0,0,1-52.19-6.64,36.47,36.47,0,0,1,.29-45.51l-15-21.2a68.67,68.67,0,0,1-71.32-13.18,66.54,66.54,0,0,1-10.67-86l-53.23-38.89a43.38,43.38,0,0,1-28.11,10l-1.21,0c-23.39-.75-42.15-19.83-42.05-43.09a42.27,42.27,0,0,1,12.85-30.27,43.36,43.36,0,0,1,30.76-12.41c23.94.14,43.36,19.46,43.26,43.11a42.32,42.32,0,0,1-3,15.55l55.2,40.33a68.61,68.61,0,0,1,65.59-10.37L286.82,188a42.55,42.55,0,0,1-12.61-19.87,42.12,42.12,0,0,1,3.58-32.6c11.49-20.74,37.94-28.35,58.95-17a42.89,42.89,0,0,1,20.86,25.66A42.16,42.16,0,0,1,354,176.78Z"/></svg>