<svg id="Capa_1" data-name="Capa 1" xmlns="http://www.w3.org/2000/svg" viewBox="0 0 16 16"><path d="M14.6,11.91,15.65,7a2.43,2.43,0,0,0-.8-2.36L10.66,1A2.4,2.4,0,0,0,9.08.43a2.37,2.37,0,0,0-.7.1L3.1,2.1A2.46,2.46,0,0,0,1.4,3.94l-1,4.94a2.42,2.42,0,0,0,.8,2.36l4.18,3.6a2.45,2.45,0,0,0,2.3.48l5.28-1.58h0A2.45,2.45,0,0,0,14.6,11.91ZM11,5.52a1.36,1.36,0,0,1-1.21.68l-.26,0L8.83,7.4,9,7.51a2,2,0,0,1,.12,2.89,1.57,1.57,0,0,1-.19.18l.43.61a1.15,1.15,0,0,1,1.25.39,1.07,1.07,0,0,1,.23.83,1.11,1.11,0,0,1-.43.74,1.18,1.18,0,0,1-.73.24A1.11,1.11,0,0,1,8.77,13a1.08,1.08,0,0,1-.23-.83,1,1,0,0,1,.23-.56l-.45-.65a2.19,2.19,0,0,1-.84.15,2.1,2.1,0,0,1-1.34-.55,2,2,0,0,1-.67-1.43,2.1,2.1,0,0,1,.34-1.2L4.19,6.69A1.35,1.35,0,0,1,3.33,7h0A1.3,1.3,0,0,1,2.4,4.76a1.33,1.33,0,0,1,2.26.94,1.27,1.27,0,0,1-.09.47L6.25,7.4a2.08,2.08,0,0,1,2-.31l.66-1.23a1.31,1.31,0,0,1-.39-.61,1.27,1.27,0,0,1,.11-1,1.33,1.33,0,0,1,1.8-.52,1.27,1.27,0,0,1,.64.78A1.29,1.29,0,0,1,11,5.52Z"/></svg>