<svg id="Capa_1" data-name="Capa 1" xmlns="http://www.w3.org/2000/svg" viewBox="0 0 64 64"><path d="M58.83,48,63.1,27.92a9.93,9.93,0,0,0-3.26-9.62l-17-14.56a9.87,9.87,0,0,0-6.45-2.39,10,10,0,0,0-2.85.41L12.06,8.15a9.94,9.94,0,0,0-6.9,7.46L.89,35.72a10,10,0,0,0,3.25,9.62l17,14.6a9.88,9.88,0,0,0,9.33,2L52,55.5h0A10,10,0,0,0,58.83,48ZM44.08,22a5.41,5.41,0,0,1-4.91,2.77,6.8,6.8,0,0,1-1.09-.15l-2.72,5.05c.17.13.35.28.51.43a8.28,8.28,0,0,1,.47,11.78,10.28,10.28,0,0,1-.77.72l1.76,2.49a4.66,4.66,0,0,1,5.08,1.55,4.55,4.55,0,0,1-.82,6.42,4.59,4.59,0,0,1-3,.94,4.64,4.64,0,0,1-3.52-1.77,4.54,4.54,0,0,1-.94-3.38,4.43,4.43,0,0,1,1-2.27L33.28,44a8.49,8.49,0,0,1-8.86-1.64A8.24,8.24,0,0,1,23.1,31.66l-6.62-4.83A5.36,5.36,0,0,1,13,28.07h-.15a5.37,5.37,0,0,1-5.22-5.35A5.24,5.24,0,0,1,9.21,19a5.42,5.42,0,0,1,9.2,3.81A5.22,5.22,0,0,1,18,24.7l6.85,5A8.53,8.53,0,0,1,33,28.43l2.7-5a5.28,5.28,0,0,1-1.13-6.51,5.43,5.43,0,0,1,7.33-2.11A5.36,5.36,0,0,1,44.53,18,5.25,5.25,0,0,1,44.08,22Z"/></svg>