<svg xmlns="http://www.w3.org/2000/svg" width="17.67" height="15.423" viewBox="0 0 17.67 15.423"><g transform="translate(-346.333 -149)"><path d="M11.624,15.547H3.981a.771.771,0,0,1-.771-.771V11.692a.771.771,0,1,0-1.542,0v3.084A2.313,2.313,0,0,0,3.982,17.09h7.7A.836.836,0,0,0,11.624,15.547ZM10.149,9.83V2.438a.771.771,0,0,0-1.542,0V9.83L6.068,7.291a.771.771,0,0,0-1.09,1.09l3.856,3.856a.78.78,0,0,0,.25.167.76.76,0,0,0,.3.058.77.77,0,0,0,.545-.226l3.856-3.856a.771.771,0,1,0-1.09-1.09C12.39,7.592,10.149,9.83,10.149,9.83Z" transform="translate(344.665 147.333)"/><path d="M6.937,5.625h0L4.814,3.5,6.937,1.378h0a.219.219,0,0,0,0-.309l-1-1A.218.218,0,0,0,5.7.015a.213.213,0,0,0-.078.05h0L3.5,2.189,1.378.065h0a.219.219,0,0,0-.309,0l-1,1a.219.219,0,0,0,0,.309h0L2.189,3.5.065,5.625h0a.219.219,0,0,0,0,.309l1,1a.219.219,0,0,0,.309,0h0L3.5,4.814,5.625,6.937h0a.219.219,0,0,0,.309,0l1-1a.219.219,0,0,0,0-.309Z" transform="translate(357.002 157.108)"/></g></svg>