<!-- Generated by IcoMoon.io -->
<svg version="1.1" xmlns="http://www.w3.org/2000/svg" width="20" height="20" viewBox="0 0 20 20">
<title>upload-cloud</title>
<path d="M9.167 12.012v5.488c0 0.46 0.373 0.833 0.833 0.833s0.833-0.373 0.833-0.833v-5.488l1.911 1.911c0.326 0.326 0.853 0.326 1.178 0s0.326-0.853 0-1.178l-3.333-3.333c-0.077-0.077-0.168-0.138-0.27-0.181s-0.211-0.063-0.319-0.063c-0.213 0-0.427 0.082-0.589 0.244l-3.333 3.333c-0.326 0.326-0.326 0.853 0 1.178s0.853 0.326 1.178 0zM17.391 16.057c1.212-0.661 2.043-1.752 2.403-2.978s0.254-2.593-0.407-3.805c-0.566-1.037-1.447-1.796-2.466-2.219-0.603-0.251-1.254-0.383-1.916-0.387h-0.439c-0.604-1.714-1.787-3.090-3.264-3.96-1.652-0.973-3.679-1.318-5.684-0.799s-3.611 1.802-4.585 3.454-1.318 3.679-0.799 5.684c0.31 1.197 0.894 2.258 1.646 3.094 0.308 0.343 0.835 0.37 1.177 0.063s0.37-0.835 0.063-1.177c-0.573-0.637-1.029-1.458-1.272-2.397-0.403-1.56-0.137-3.134 0.622-4.421s2.006-2.283 3.566-2.687 3.134-0.137 4.421 0.622 2.283 2.006 2.687 3.566c0.097 0.362 0.422 0.625 0.808 0.625h1.044c0.447 0.003 0.884 0.092 1.287 0.26 0.679 0.282 1.264 0.786 1.642 1.477 0.441 0.808 0.513 1.718 0.271 2.537s-0.794 1.545-1.602 1.985c-0.404 0.22-0.553 0.727-0.332 1.131s0.727 0.553 1.131 0.332z"></path>
</svg>
